<svg xmlns="http://www.w3.org/2000/svg" aria-hidden="true" style="position:absolute;width:0;height:0;overflow:hidden">
  <defs>
    <symbol id="icon-clear" viewBox="0 0 32 32">
      <path d="M10 8.007a2 2 0 0 0-2 2c0 .552.224 1.052.586 1.414l4.586 4.586-4.586 4.586A2 2 0 0 0 10 24.007c.552 0 1.052-.224 1.414-.586L16 18.835l4.566 4.566A2 2 0 0 0 24 22.006c0-.552-.224-1.052-.586-1.414l-4.586-4.586 4.566-4.566a2 2 0 0 0-1.395-3.434c-.552 0-1.052.224-1.414.586l-4.586 4.586-4.566-4.566-.02-.02a1.993 1.993 0 0 0-1.414-.585z"/>
    </symbol>
    <symbol id="icon-closed_eye" viewBox="0 0 32 32">
      <path d="M6.837 5.173 5.289 6.721l19.927 19.927 1.549-1.549L6.838 5.172zM8.559 9.992l1.457 1.457c-1.595 1.358-2.866 3.05-3.687 4.529l-.003.005c2.287 3.823 5.915 7.436 10.493 6.888 1.236-.148 2.389-.57 3.442-1.175l1.476 1.475c-2.053 1.318-4.407 2.016-6.958 1.671-4.599-.622-8.36-4.394-10.73-8.824 1.113-2.239 2.636-4.382 4.508-6.027zm3.315-2.16a10.583 10.583 0 0 1 4.164-.934c.082 0 1.062.046 1.506.119.279.046.556.104.829.175 4.363 1.137 7.595 4.824 9.627 8.624-.852 1.721-1.969 3.401-3.3 4.841l-1.413-1.413a17.4 17.4 0 0 0 2.435-3.384s-.635-1.021-1.116-1.662a18.672 18.672 0 0 0-.977-1.197 33.949 33.949 0 0 0-1.568-1.552c-1.674-1.44-3.639-2.569-5.997-2.55a7.986 7.986 0 0 0-2.624.498l-1.563-1.563z"/>
      <path d="m12.527 13.96 1.2 1.199a2.422 2.422 0 0 0 3.058 3.057l1.2 1.2a4.01 4.01 0 0 1-5.455-5.455zm3.424-2.051.074-.001a4.01 4.01 0 0 1 4.008 4.008v.074l-4.082-4.082z"/>
    </symbol>
    <symbol id="icon-opened_eye" viewBox="0 0 32 32">
      <path d="M16.256 6.963c5.287.075 9.625 4.828 11.797 8.918 0 0-.764 1.564-1.482 2.566-.347.485-.712.956-1.096 1.413-.273.325-.556.642-.849.949-2.619 2.75-6.379 4.802-10.35 4.005-4.412-.885-8.01-4.665-10.173-8.73 0 0 .768-1.566 1.489-2.566.323-.448.662-.885 1.017-1.309.272-.325.554-.641.846-.948 2.314-2.438 5.282-4.315 8.8-4.298zm-.018 2c-2.945-.011-5.394 1.633-7.332 3.675a20.135 20.135 0 0 0-1.691 2.05c-.294.409-.596.923-.836 1.361 1.907 3.204 4.77 6.099 8.291 6.805 3.282.659 6.344-1.151 8.508-3.423.265-.277.52-.564.767-.858.35-.416.683-.847 1-1.29.293-.41.595-.925.834-1.364-1.979-3.313-5.365-6.892-9.541-6.957z"/>
      <path d="M16.079 11.974c-2.212 0-4.008 1.796-4.008 4.008s1.796 4.008 4.008 4.008c2.212 0 4.009-1.796 4.009-4.008s-1.797-4.008-4.009-4.008zm0 2.005a2.005 2.005 0 1 1 0 4.01 2.005 2.005 0 0 1 0-4.01z"/>
    </symbol>
  </defs>
</svg>